<svg width="108" height="108" viewBox="0 0 108 108" fill="none" xmlns="http://www.w3.org/2000/svg">
<path fill-rule="evenodd" clip-rule="evenodd" d="M24.5697 44.3345C24.6392 44.2941 24.7107 44.2571 24.7839 44.2237L51.4914 31.2859C52.8205 30.642 54.3462 30.642 55.6753 31.2859L82.4349 44.2489C84.4106 45.206 84.4106 48.1968 82.4349 49.1539L55.6753 62.117C54.3462 62.7608 52.8205 62.7608 51.4914 62.117L28.3056 50.8851V58.8241C28.3056 60.312 27.1738 61.5181 25.7778 61.5181C24.3817 61.5181 23.25 60.312 23.25 58.8241V46.7014C23.25 46.6595 23.2509 46.6178 23.2527 46.5764C23.2901 45.6879 23.7291 44.8161 24.5697 44.3345ZM73.4466 58.8959C73.6126 58.8155 73.8056 58.9365 73.8056 59.1209V64.8158C73.8056 65.8273 73.5384 66.8187 73.0343 67.6762C69.1107 74.3504 62.5147 77.6818 53.5833 77.6818C44.652 77.6818 38.056 74.3505 34.1325 67.6765C33.6286 66.8192 33.3613 65.8281 33.3611 64.816V59.1209C33.3611 58.9365 33.5541 58.8155 33.7201 58.8959L51.4914 67.5049C52.8205 68.1487 54.3462 68.1487 55.6753 67.5049L73.4466 58.8959Z" fill="#005320"/>
<path d="M91.5 30.0314C91.5 30.4456 91.1642 30.7814 90.75 30.7814H83.9875V37.6364C83.9875 38.0506 83.6518 38.3864 83.2375 38.3864H79.77C79.3558 38.3864 79.02 38.0506 79.02 37.6364V30.7814H72.2576C71.8434 30.7814 71.5076 30.4456 71.5076 30.0314V26.7489C71.5076 26.3347 71.8434 25.9989 72.2576 25.9989H79.02V19.1439C79.02 18.7297 79.3558 18.3939 79.77 18.3939H83.2375C83.6518 18.3939 83.9875 18.7297 83.9875 19.1439V25.9989H90.75C91.1642 25.9989 91.5 26.3347 91.5 26.7489V30.0314Z" fill="#005320"/>
</svg>
